<svg width="100" height="105" viewBox="0 0 100 105" fill="none" xmlns="http://www.w3.org/2000/svg">
<g clip-path="url(#clip0_4_161)">
<path opacity="0.15" d="M60.2 9.19996C60.2 9.19996 40.4 -8.90004 23.9 5.79996C7.4 20.5 -2.9 59.8 0.699996 82.5C4.3 105.2 26.8 109.7 35.7 100C44.6 90.3 45.2 66.3 59.7 56.6C74.2 46.9 106.1 35.5 99 23.1C91.9 10.7 80.8 22.9 60.2 9.19996Z" fill="#6F6E6F"/>
<path d="M88.8 30.2L65 54L56.3 62.7C54.7 64.2999 52.1 64.2999 50.5 62.7L17.9 30.2C18.6 29.6 19.5 29.2 20.6 29.2H86.2C87.2 29.2 88.1 29.6 88.8 30.2Z" fill="#FAA71A"/>
<path d="M87.4 28.6999C87.1 28.1999 86.8 27.7999 86.3 27.3999C85.3 26.4999 84 25.8999 82.5 25.8999H16.9C15.4 25.8999 14.1 26.3999 13.1 27.3999C12.7 27.7999 12.3 28.1999 12 28.6999C11.4 29.5999 11.1 30.5999 11.1 31.6999V73.0999C11.1 74.1999 11.4 75.2999 12 76.0999C12.3 76.5999 12.7 76.9999 13.1 77.2999C14.1 78.1999 15.4 78.7999 16.9 78.7999H82.5C84 78.7999 85.3 78.1999 86.3 77.2999C86.7 76.9999 87.1 76.4999 87.4 76.0999C88 75.1999 88.3 74.1999 88.3 73.0999V31.6999C88.3 30.5999 88 29.5999 87.4 28.6999ZM16.9 27.5999H82.5C83.5 27.5999 84.4 27.9999 85.2 28.5999L61.3 52.4999L52.6 61.1999C51 62.7999 48.4 62.7999 46.8 61.1999L14.3 28.5999C15 27.9999 15.9 27.5999 16.9 27.5999ZM12.8 73.1999V31.6999C12.8 31.0999 13 30.3999 13.2 29.8999L35.7 52.3999L13.2 74.9999C13 74.3999 12.8 73.7999 12.8 73.1999ZM82.5 77.2999H16.9C15.9 77.2999 15 76.8999 14.3 76.2999L37 53.5999L45.7 62.2999C46.8 63.3999 48.3 63.9999 49.8 63.9999C51.3 63.9999 52.7 63.3999 53.8 62.2999L62.5 53.5999L85.1 76.2999C84.5 76.8999 83.6 77.2999 82.5 77.2999ZM86.6 73.1999C86.6 73.8999 86.4 74.4999 86.2 74.9999L63.7 52.4999L86.3 29.8999C86.6 30.3999 86.7 31.0999 86.7 31.6999V73.1999H86.6Z" fill="black"/>
</g>
<defs>
<clipPath id="clip0_4_161">
<rect width="100" height="104.9" fill="white"/>
</clipPath>
</defs>
</svg>
