<svg width="100" height="102" viewBox="0 0 100 102" fill="none" xmlns="http://www.w3.org/2000/svg">
<g clip-path="url(#clip0_4_167)">
<path opacity="0.15" d="M45.7 0.100074C45.7 0.100074 22 -2.09993 16.8 17.0001C11.6 36.1001 12.3 36.5001 3.29999 54.0001C-5.70001 71.5001 3.09999 87.9001 35 97.6001C66.9 107.3 93.5 98.8001 98.5 84.5001C103.5 70.2001 95.3 61.6001 85.6 54.2001C75.9 46.8001 71.2 26.6001 75 14.8001C78.8 3.10007 45.7 0.100074 45.7 0.100074Z" fill="#6F6E6F"/>
<path d="M29.6 60.1999C29.6 62.9999 31.9 65.2999 34.7 65.2999C37.5 65.2999 39.7 62.9999 39.7 60.1999C39.7 57.3999 37.5 55.1999 34.7 55.1999C31.9 55.0999 29.6 57.3999 29.6 60.1999Z" fill="#FAA71A"/>
<path d="M70.6 65.2001C73.4 65.2001 75.7 62.9001 75.7 60.1001C75.7 57.3001 73.4 55.1001 70.6 55.1001C67.8 55.1001 65.6 57.4001 65.6 60.1001C65.6 63.0001 67.9 65.2001 70.6 65.2001Z" fill="#FAA71A"/>
<path d="M52.7 36.6C55.5 36.6 57.8 34.3 57.8 31.5C57.8 28.7 55.5 26.5 52.7 26.5C49.9 26.5 47.7 28.8 47.7 31.5C47.7 34.3 49.9 36.6 52.7 36.6Z" fill="#FAA71A"/>
<path d="M83.8 75.2H78.6V68.9C78.5 67.4 77.1 64.5 72.8 64.5C72.3 64.5 72 64.9 72 65.3C72 65.7 72.4 66.1 72.8 66.1C76.5 66.1 76.9 68.7 76.9 68.9V75.1H59.3V69C59.3 68.7 59.7 66.1 63.4 66.1C63.9 66.1 64.2 65.7 64.2 65.3C64.2 64.9 63.8 64.5 63.4 64.5C59.1 64.5 57.7 67.4 57.6 69V75.2H42.6V68.9C42.5 67.4 41.1 64.5 36.8 64.5C36.3 64.5 36 64.9 36 65.3C36 65.7 36.4 66.1 36.8 66.1C40.5 66.1 40.9 68.7 40.9 68.9V75.1H23.3V69C23.3 68.7 23.7 66.1 27.4 66.1C27.9 66.1 28.2 65.7 28.2 65.3C28.2 64.9 27.8 64.5 27.4 64.5C23.1 64.5 21.7 67.4 21.6 69V75.2H16.2C15.7 75.2 15.4 75.6 15.4 76C15.4 76.4 15.8 76.8 16.2 76.8H83.9C84.4 76.8 84.7 76.4 84.7 76C84.7 75.6 84.3 75.2 83.8 75.2Z" fill="black"/>
<path d="M27.5 58.4C27.5 61 29.6 63.0999 32.2 63.0999C34.8 63.0999 36.9 61 36.9 58.4C36.9 55.8 34.8 53.7 32.2 53.7C29.6 53.7 27.5 55.8 27.5 58.4ZM32.2 55.2999C33.9 55.2999 35.2 56.6999 35.2 58.2999C35.2 59.9999 33.8 61.2999 32.2 61.2999C30.5 61.2999 29.2 59.8999 29.2 58.2999C29.2 56.6999 30.5 55.2999 32.2 55.2999Z" fill="black"/>
<path d="M68.2 63.0001C70.8 63.0001 72.9 60.9001 72.9 58.3001C72.9 55.7001 70.8 53.6001 68.2 53.6001C65.6 53.6001 63.5 55.7001 63.5 58.3001C63.5 60.9001 65.6 63.0001 68.2 63.0001ZM68.2 55.3001C69.9 55.3001 71.2 56.7001 71.2 58.3001C71.2 60.0001 69.8 61.3001 68.2 61.3001C66.6 61.3001 65.2 59.9001 65.2 58.3001C65.1 56.7001 66.5 55.3001 68.2 55.3001Z" fill="black"/>
<path d="M40.5 47.8999C41 47.8999 41.3 47.4999 41.3 47.0999V40.3999C41.3 40.0999 41.7 37.4999 45.4 37.4999C45.9 37.4999 46.2 37.0999 46.2 36.6999C46.2 36.1999 45.8 35.8999 45.4 35.8999C41.1 35.8999 39.7 38.7999 39.6 40.3999V47.1999C39.7 47.4999 40.1 47.8999 40.5 47.8999Z" fill="black"/>
<path d="M54.1 36.5999C54.1 37.0999 54.5 37.4 54.9 37.4C58.6 37.4 59 40 59 40.2V47C59 47.5 59.4 47.7999 59.8 47.7999C60.3 47.7999 60.6 47.4 60.6 47V40.0999C60.5 38.5999 59.1 35.7 54.8 35.7C54.4 35.7 54.1 36.0999 54.1 36.5999Z" fill="black"/>
<path d="M50.2 34.4C52.8 34.4 54.9 32.3 54.9 29.7C54.9 27.1 52.8 25 50.2 25C47.6 25 45.5 27.1 45.5 29.7C45.6 32.3 47.7 34.4 50.2 34.4ZM50.2 26.7C51.9 26.7 53.2 28.1 53.2 29.7C53.2 31.3 51.8 32.7 50.2 32.7C48.6 32.7 47.2 31.3 47.2 29.7C47.2 28.1 48.6 26.7 50.2 26.7Z" fill="black"/>
<path d="M22 59.2999C22.5 59.2999 22.8 58.8999 22.8 58.4999V42.9999C22.8 42.9999 22.8 42.1999 23.3 41.6999C23.8 41.1999 24.6 40.8999 25.7 40.8999H28.1L26.8 42.2999C26.5 42.5999 26.5 43.1999 26.9 43.4999C27.2 43.7999 27.8 43.7999 28.1 43.3999L30.7 40.5999C30.8 40.4999 30.9 40.2999 30.9 40.0999V39.9999C30.9 39.8999 30.9 39.7999 30.9 39.6999C30.9 39.5999 30.8 39.5999 30.8 39.5999V39.4999L27.9 36.2999C27.6 35.9999 27.1 35.8999 26.7 36.1999C26.3 36.4999 26.3 36.9999 26.6 37.3999L28.3 39.1999H25.9C24.3 39.1999 23.1 39.5999 22.3 40.4999C21.3 41.5999 21.3 42.8999 21.3 42.9999V58.3999C21.2 58.8999 21.5 59.2999 22 59.2999Z" fill="black"/>
<path d="M69.5 40.7001H74.3C74.3 40.7001 76 40.6001 77 41.5001C77.5 42.0001 77.8 42.8001 77.8 43.8001V54.6001L76.1 53.1001C75.8 52.8001 75.2 52.8001 74.9 53.2001C74.6 53.5001 74.6 54.1001 75 54.4001L78.1 57.1001C78.1 57.1001 78.1 57.1001 78.2 57.1001C78.3 57.2001 78.5 57.3001 78.7 57.3001C78.8 57.3001 78.9 57.3001 79 57.2001L79.1 57.1001H79.2L82.3 54.6001C82.7 54.3001 82.7 53.8001 82.4 53.4001C82.1 53.0001 81.6 53.0001 81.2 53.3001L79.4 54.7001V43.8001C79.4 42.3001 78.9 41.1001 78 40.3001C76.4 38.9001 74.1 39.0001 74.1 39.0001H69.4C68.9 39.0001 68.6 39.4001 68.6 39.8001C68.7 40.3001 69 40.7001 69.5 40.7001Z" fill="black"/>
</g>
<defs>
<clipPath id="clip0_4_167">
<rect width="100" height="101.8" fill="white"/>
</clipPath>
</defs>
</svg>
