<svg width="100" height="99" viewBox="0 0 100 99" fill="none" xmlns="http://www.w3.org/2000/svg">
<g clip-path="url(#clip0_4_184)">
<path opacity="0.15" d="M28 6.99997C26.5 10.6 26.5 15.1 25.6 18.8C24.8 22.1 23.9 25.3 22.8 28.5C20.6 35 17.7 41.5 13 46.6C12.6 47 12.3 47.4 11.9 47.7C0.599986 58.5 -6.30001 76.6 8.29999 86.7C22.9 96.8 46.3 86.4 58.2 94.7C70.1 103 91.8 97.1 96.5 89.1C101.3 81.1 101.3 71 95.6 61.8C89.9 52.6 85 41.6 91.8 30C98.6 18.4 87.9 -6.90003 76.3 1.79997C69.4 6.89997 58.6 9.99997 50.1 7.29997C47.8 6.59997 46 4.99997 43.9 3.79997C42.2 2.89997 40.3 2.29997 38.4 1.99997C34.7 1.49997 30.4 2.29997 28.5 5.89997C28.3 6.29997 28.1 6.69997 28 6.99997Z" fill="#6F6E6F"/>
<path d="M27 64.2999C27 65.7999 25.8 66.9999 24.3 66.9999C22.8 66.9999 21.6 65.7999 21.6 64.2999C21.6 62.7999 22.8 61.5999 24.3 61.5999C25.8 61.5999 27 62.7999 27 64.2999Z" fill="#FAA71A"/>
<path d="M53.4 64.2999C53.4 65.7999 52.2 66.9999 50.7 66.9999C49.2 66.9999 48 65.7999 48 64.2999C48 62.7999 49.2 61.5999 50.7 61.5999C52.2 61.5999 53.4 62.7999 53.4 64.2999Z" fill="#FAA71A"/>
<path d="M79.9 64.2999C79.9 65.7999 78.7 66.9999 77.2 66.9999C75.7 66.9999 74.5 65.7999 74.5 64.2999C74.5 62.7999 75.7 61.5999 77.2 61.5999C78.7 61.5999 79.9 62.7999 79.9 64.2999Z" fill="#FAA71A"/>
<path d="M58.2 30C58.2 31.1 58 32.1999 57.5 33.0999C57.3 33.4999 57.1 33.8 56.9 34.2C55.7 35.9 53.8 37.0999 51.6 37.2999C51.4 37.2999 51.2 37.2999 51 37.2999C50.8 37.2999 50.6 37.2999 50.4 37.2999C48.2 37.0999 46.3 35.9999 45.1 34.2999C44.9 33.9999 44.6 33.6 44.5 33.2C44 32.2 43.8 31.1 43.8 30C43.8 28.9 44.1 27.8 44.5 26.9C44.7 26.4999 44.9 26.1999 45.2 25.7999C46.4 24.0999 48.3 22.9 50.5 22.7C50.7 22.7 50.9 22.7 51.1 22.7C51.3 22.7 51.5 22.7 51.7 22.7C53.9 22.9 55.8 24 57 25.7C57.3 26 57.5 26.4 57.6 26.7C57.9 27.7 58.2 28.8 58.2 30Z" fill="#FAA71A"/>
<path d="M23.3 55C23.8 55 24.2 54.6 24.2 54.1V47.1H49V53.9001C49 54.4001 49.4 54.8 49.9 54.8C50.4 54.8 50.8 54.4001 50.8 53.9001V47.1H75.1V53.5C75.1 54 75.5 54.4001 76 54.4001C76.5 54.4001 76.9 54 76.9 53.5V46.2001C76.9 45.7001 76.5 45.3 76 45.3H23.3C22.8 45.3 22.4 45.7001 22.4 46.2001V54.1C22.4 54.6 22.8 55 23.3 55Z" fill="black"/>
<path d="M19.4 68.9001C15.6 68.9001 14.4 71.5001 14.3 72.9001V78.9001C14.3 79.3001 14.6 79.6001 15 79.6001C15.4 79.6001 15.7 79.3001 15.7 78.9001V73.0001C15.7 72.7001 16.1 70.4001 19.4 70.4001C19.8 70.4001 20.1 70.1001 20.1 69.7001C20.1 69.2001 19.8 68.9001 19.4 68.9001Z" fill="black"/>
<path d="M27.7 68.9001C27.3 68.9001 27 69.2001 27 69.6001C27 70.0001 27.3 70.3001 27.7 70.3001C31 70.3001 31.3 72.6001 31.4 72.8001V78.8001C31.4 79.2001 31.7 79.5001 32.1 79.5001C32.5 79.5001 32.8 79.2001 32.8 78.8001V72.7001C32.7 71.5001 31.4 68.9001 27.7 68.9001Z" fill="black"/>
<path d="M23.6 59.4001C21.3 59.4001 19.5 61.3001 19.5 63.5001C19.5 65.8001 21.4 67.6001 23.6 67.6001C25.9 67.6001 27.7 65.7001 27.7 63.5001C27.7 61.3001 25.9 59.4001 23.6 59.4001ZM23.6 66.2001C22.1 66.2001 20.9 65.0001 20.9 63.5001C20.9 62.0001 22.1 60.8001 23.6 60.8001C25.1 60.8001 26.3 62.0001 26.3 63.5001C26.2 65.0001 25 66.2001 23.6 66.2001Z" fill="black"/>
<path d="M45.9 68.9001C42.1 68.9001 40.9 71.5001 40.8 72.9001V78.9001C40.8 79.3001 41.1 79.6001 41.5 79.6001C41.9 79.6001 42.2 79.3001 42.2 78.9001V73.0001C42.2 72.7001 42.6 70.4001 45.9 70.4001C46.3 70.4001 46.6 70.1001 46.6 69.7001C46.6 69.2001 46.3 68.9001 45.9 68.9001Z" fill="black"/>
<path d="M54.1 68.9001C53.7 68.9001 53.4 69.2001 53.4 69.6001C53.4 70.0001 53.7 70.3001 54.1 70.3001C57.4 70.3001 57.7 72.6001 57.8 72.8001V78.8001C57.8 79.2001 58.1 79.5001 58.5 79.5001C58.9 79.5001 59.2 79.2001 59.2 78.8001V72.7001C59.1 71.5001 57.9 68.9001 54.1 68.9001Z" fill="black"/>
<path d="M50 59.4001C47.7 59.4001 45.9 61.3001 45.9 63.5001C45.9 65.8001 47.8 67.6001 50 67.6001C52.3 67.6001 54.1 65.7001 54.1 63.5001C54.2 61.3001 52.3 59.4001 50 59.4001ZM50 66.2001C48.5 66.2001 47.3 65.0001 47.3 63.5001C47.3 62.0001 48.5 60.8001 50 60.8001C51.5 60.8001 52.7 62.0001 52.7 63.5001C52.7 65.0001 51.5 66.2001 50 66.2001Z" fill="black"/>
<path d="M72.3 68.9001C68.5 68.9001 67.3 71.5001 67.2 72.9001V78.9001C67.2 79.3001 67.5 79.6001 67.9 79.6001C68.3 79.6001 68.6 79.3001 68.6 78.9001V73.0001C68.6 72.7001 69 70.4001 72.3 70.4001C72.7 70.4001 73 70.1001 73 69.7001C73.1 69.2001 72.7 68.9001 72.3 68.9001Z" fill="black"/>
<path d="M85.7 72.8001C85.6 71.4001 84.3 68.9001 80.6 68.9001C80.2 68.9001 79.9 69.2001 79.9 69.6001C79.9 70.0001 80.2 70.3001 80.6 70.3001C83.9 70.3001 84.2 72.6001 84.3 72.8001V78.8001C84.3 79.2001 84.6 79.5001 85 79.5001C85.4 79.5001 85.7 79.2001 85.7 78.8001V72.8001Z" fill="black"/>
<path d="M76.5 59.4001C74.2 59.4001 72.4 61.3001 72.4 63.5001C72.4 65.8001 74.3 67.6001 76.5 67.6001C78.8 67.6001 80.6 65.7001 80.6 63.5001C80.7 61.3001 78.8 59.4001 76.5 59.4001ZM76.5 66.2001C75 66.2001 73.8 65.0001 73.8 63.5001C73.8 62.0001 75 60.8001 76.5 60.8001C78 60.8001 79.2 62.0001 79.2 63.5001C79.2 65.0001 78 66.2001 76.5 66.2001Z" fill="black"/>
<path d="M41.7 25L42.6 25.5C42 26.6 41.7 27.9001 41.7 29.2001C41.7 30.6 42 31.9 42.6 33L41.7 33.5C41.4 33.7 41.3 34.1 41.5 34.3C41.6 34.5 41.8 34.6 42 34.6C42.1 34.6 42.2 34.6 42.3 34.5L43.2 34C44.6 36 46.9 37.4 49.5 37.6V38.6C49.5 38.9 49.8 39.2001 50.1 39.2001C50.4 39.2001 50.7 38.9 50.7 38.6V37.6C53.4 37.4 55.7 36.0001 57.1 33.9001L58 34.4001C58.1 34.5001 58.2 34.5 58.3 34.5C58.5 34.5 58.7 34.4001 58.8 34.2001C59 33.9001 58.9 33.5001 58.6 33.4001L57.8 33C58.4 31.9 58.7 30.6 58.7 29.3C58.7 27.9 58.4 26.6 57.8 25.5L58.7 25C59 24.8 59.1 24.5001 58.9 24.2001C58.7 23.9001 58.3 23.8 58 24L57.1 24.5C55.7 22.5 53.4 21.1 50.8 20.9V19.9C50.8 19.6 50.5 19.3 50.2 19.3C49.9 19.3 49.6 19.6 49.6 19.9V20.9C46.9 21.1 44.6 22.5001 43.2 24.6L42.3 24C42 23.8 41.6 23.9001 41.4 24.2001C41.3 24.5001 41.4 24.9 41.7 25ZM43.6 26.2001C43.8 25.8001 44 25.5001 44.2 25.1C45.4 23.4001 47.3 22.2 49.5 22C49.7 22 49.9 22 50.1 22C50.3 22 50.5 22 50.7 22C52.9 22.2 54.8 23.3 56 25C56.3 25.3 56.5 25.7 56.6 26C57.1 27 57.4 28.1 57.4 29.2001C57.4 30.3001 57.2 31.4 56.7 32.3C56.5 32.7 56.3 33.0001 56.1 33.4001C54.9 35.1001 53 36.3 50.8 36.5C50.6 36.5 50.4 36.5 50.2 36.5C50 36.5 49.8 36.5 49.6 36.5C47.4 36.3 45.5 35.2 44.3 33.5C44.1 33.2 43.8 32.8001 43.7 32.4001C43.2 31.4001 42.9 30.3001 42.9 29.2001C42.9 28.2001 43.1 27.1001 43.6 26.2001Z" fill="black"/>
</g>
<defs>
<clipPath id="clip0_4_184">
<rect width="100" height="98.8" fill="white"/>
</clipPath>
</defs>
</svg>
