<svg width="100" height="102" viewBox="0 0 100 102" fill="none" xmlns="http://www.w3.org/2000/svg">
<g clip-path="url(#clip0_4_140)">
<path opacity="0.15" d="M7.8 41.5001C7.8 41.6001 7.8 41.7001 7.9 41.8001C9.8 49.4001 5.6 55.5001 4.2 62.7001C2.8 69.7001 7.8 72.8001 14.1 74.1001C29.4 77.2001 42 85.4001 46.5 92.1001C51 98.8001 69.2 107.2 82.9 94.5001C96.6 81.8001 93.4 65.9001 93.2 56.5001C93 47.2001 100 31.5001 100 19.5001C100 7.5001 85.3 -6.4999 70.4 3.3001C55.5 13.0001 38.6 15.2001 23.1 10.0001C17.5 8.1001 9.8 6.8001 4.5 10.2001C-2.4 14.7001 1.19209e-06 24.4001 2.9 30.6001C4.6 34.2001 6.8 37.7001 7.8 41.5001Z" fill="#6F6E6F"/>
<path d="M38.5 69.2001C38.7 69.2001 38.8 69.3001 38.7 69.3001L37.7 70.2001L30.7 76.4001L31.5 70.2001L31.6 69.7001C31.6 69.4001 31.7 69.1001 31.9 69.1001H38.5V69.2001Z" fill="#FAA71A"/>
<path d="M79 23.1001H21C19 23.1001 17.3 24.7001 17.3 26.8001V66.2001C17.3 68.2001 19 69.9001 21 69.9001H29.7L28.8 77.4001C28.8 77.6001 28.9 77.8001 29.1 77.9001C29.2 77.9001 29.3 78.0001 29.3 78.0001C29.4 78.0001 29.6 78.0001 29.6 77.9001L38.5 69.9001H79C81 69.9001 82.7 68.2001 82.7 66.2001V26.8001C82.6 24.8001 81 23.1001 79 23.1001ZM81.6 66.2001C81.6 67.6001 80.4 68.8001 79 68.8001H38.3C38.2 68.8001 38 68.9001 37.9 68.9001L36.9 69.8001L29.9 76.0001L30.7 69.8001L30.8 69.3001C30.8 69.0001 30.7 68.7001 30.4 68.7001H21C19.6 68.7001 18.4 67.5001 18.4 66.1001V26.8001C18.4 25.3001 19.6 24.2001 21 24.2001H79C80.4 24.2001 81.6 25.4001 81.6 26.8001V66.2001Z" fill="black"/>
<path d="M44.9 37.3H28C27.7 37.3 27.5 37.1 27.5 36.8C27.5 36.5 27.7 36.3 28 36.3H44.9C45.2 36.3 45.4 36.5 45.4 36.8C45.5 37 45.2 37.3 44.9 37.3Z" fill="black"/>
<path d="M71.7 46.4001H28.4C28.1 46.4001 27.9 46.2001 27.9 45.9001C27.9 45.6001 28.1 45.4001 28.4 45.4001H71.7C72 45.4001 72.2 45.6001 72.2 45.9001C72.2 46.2001 71.9 46.4001 71.7 46.4001Z" fill="black"/>
<path d="M72.9 55.8H28.1C27.8 55.8 27.6 55.6 27.6 55.3C27.6 55 27.8 54.8 28.1 54.8H72.8C73.1 54.8 73.3 55 73.3 55.3C73.4 55.6 73.2 55.8 72.9 55.8Z" fill="black"/>
<path d="M46.8 39.3H29.9C29.6 39.3 29.4 39.1 29.4 38.8C29.4 38.5 29.6 38.3 29.9 38.3H46.8C47.1 38.3 47.3 38.5 47.3 38.8C47.4 39.1 47.1 39.3 46.8 39.3Z" fill="#FAA71A"/>
<path d="M73.6 48.5H30.3C30 48.5 29.8 48.3 29.8 48C29.8 47.7 30 47.5 30.3 47.5H73.6C73.9 47.5 74.1 47.7 74.1 48C74.1 48.3 73.8 48.5 73.6 48.5Z" fill="#FAA71A"/>
<path d="M74.8 57.9001H30C29.7 57.9001 29.5 57.7001 29.5 57.4001C29.5 57.1001 29.7 56.9001 30 56.9001H74.7C75 56.9001 75.2 57.1001 75.2 57.4001C75.3 57.7001 75.1 57.9001 74.8 57.9001Z" fill="#FAA71A"/>
</g>
<defs>
<clipPath id="clip0_4_140">
<rect width="100" height="101.1" fill="white"/>
</clipPath>
</defs>
</svg>
