<?xml version="1.0" encoding="utf-8"?>
<!-- Generator: Adobe Illustrator 23.0.5, SVG Export Plug-In . SVG Version: 6.00 Build 0)  -->
<svg version="1.1" id="Layer_1" xmlns="http://www.w3.org/2000/svg" xmlns:xlink="http://www.w3.org/1999/xlink" x="0px" y="0px"
	 viewBox="0 0 166.2 140.4" style="enable-background:new 0 0 166.2 140.4;" xml:space="preserve">
<style type="text/css">
	.st0{fill:url(#SVGID_1_);}
	.st1{fill:url(#SVGID_2_);}
	.st2{fill:url(#SVGID_3_);}
	.st3{fill:url(#SVGID_4_);}
	.st4{opacity:0.2;fill:url(#SVGID_5_);enable-background:new    ;}
	.st5{opacity:0.2;fill:url(#SVGID_6_);enable-background:new    ;}
	.st6{opacity:0.2;fill:url(#SVGID_7_);enable-background:new    ;}
	.st7{opacity:0.2;fill:url(#SVGID_8_);enable-background:new    ;}
	.st8{opacity:0.2;fill:url(#SVGID_9_);enable-background:new    ;}
	.st9{fill:url(#SVGID_10_);}
	.st10{fill:url(#SVGID_11_);}
	.st11{fill:url(#SVGID_12_);}
	.st12{fill:url(#SVGID_13_);}
	.st13{opacity:0.2;fill:url(#SVGID_14_);enable-background:new    ;}
	.st14{opacity:0.2;fill:url(#SVGID_15_);enable-background:new    ;}
	.st15{opacity:0.2;fill:url(#SVGID_16_);enable-background:new    ;}
	.st16{opacity:0.2;fill:url(#SVGID_17_);enable-background:new    ;}
	.st17{opacity:0.2;fill:url(#SVGID_18_);enable-background:new    ;}
	.st18{fill:#FFFFFF;}
	.st19{opacity:0.2;fill:#FFFFFF;enable-background:new    ;}
	.st20{opacity:0.2;enable-background:new    ;}
</style>
<g>
	<g>
		<path class="st18" d="M111.7,114.8L97,140.4H28L0,91.9l26.3-45.7h45.5l7.8,13.5H34.1L21,82.8l13.2,22.9h62.4l4.9-8.5l0,0
			L111.7,114.8z"/>
		<polygon class="st18" points="166.2,140.4 138.3,140.4 76.2,32.8 21,32.8 28,20.7 97,20.7 		"/>
		<polygon class="st18" points="166,20.7 137.4,70.1 127.2,52.4 145.6,20.7 		"/>
		<polygon class="st18" points="166.2,0 147.1,0 147.1,12.1 166.2,18 		"/>
		<polygon class="st19" points="21,82.8 34.1,105.7 0,91.9 26.3,46.4 71.9,46.4 79.8,59.9 34.1,59.9 		"/>
		<path class="st19" d="M111.7,114.8L97,140.4H28l59.6-19.2l9-15.6l4.9-8.5l0,0L111.7,114.8z"/>
		<polygon class="st19" points="166.2,140.4 138.3,140.4 97,20.7 		"/>
		<polygon class="st19" points="76.2,32.8 21,32.8 28,20.7 		"/>
		<polygon class="st19" points="145.6,20.7 137.4,70.1 127.2,52.4 		"/>
	</g>
</g>
</svg>
